<svg xmlns="http://www.w3.org/2000/svg" width="256" height="256"><path fill="#1976D2" fill-opacity=".016" fill-rule="evenodd" d="M0 128.004v128.004l128.25-.254 128.25-.254.254-127.75L257.008 0H0v128.004m.485.496c0 70.4.119 99.053.265 63.672.146-35.38.146-92.98 0-128C.604 29.153.485 58.1.485 128.5"/><path fill="#1976D2" fill-opacity=".434" fill-rule="evenodd" d="M52.994.922C41.189 4.572 34 15.079 34 28.682V34h188v-5.318c0-11.525-5.333-21.134-14.432-26.004C203.504.502 203.435.5 129.5.323 88.8.226 54.372.495 52.994.922M122 60.487c-.825.209-3.187.655-5.25.992l-3.75.612v15.524l-3.902 1.722c-5.235 2.309-9.098 5.454-9.098 7.406 0 2.024 6.061 15.257 6.988 15.257.38 0 1.154-1.013 1.72-2.25 3.725-8.147 15.984-19.113 28.042-25.084 6.201-3.071 6.25-3.129 6.25-7.345 0-3.129-.494-4.515-1.87-5.252-1.946-1.041-16.507-2.245-19.13-1.582m-40.415 22.24c-3.495 4.486-8.797 14.442-9.997 18.773-.452 1.63.598 2.652 5.679 5.53l6.233 3.53.5 8.457.5 8.457 4 .705c5.407.954 14.758 1 14.285.071C95.636 114.186 94 107.711 94 93.474V82.368l-3.886-2.184C87.976 78.983 86.012 78 85.748 78c-.264 0-2.138 2.127-4.163 4.727m58.223-1.977C137.333 83.402 132 91.414 132 92.48c0 .286 1.964.52 4.364.52 11.892 0 22.381 3.832 38.302 13.994 1.936 1.235 2.592 1.101 6.169-1.266l4.003-2.649-1.954-5.142c-1.857-4.886-6.492-12.623-10.678-17.824l-1.921-2.386-6.892 3.754-6.893 3.754-5.35-3.617c-6.421-4.341-7.989-4.461-11.342-.868m-15.773 27.581C120.017 109.686 116 115.021 116 119c0 3.356 3.736 9.054 7.03 10.721 5.989 3.03 13.467-.392 15.846-7.254 1.193-3.441 1.171-4.454-.167-7.639-2.504-5.962-8.454-8.597-14.674-6.497m29.884 1.079c-.319.322.685 3.174 2.231 6.337 4.324 8.846 5.85 16.374 5.85 28.864v11.191l3.557 2.099c1.957 1.155 3.889 2.099 4.295 2.099 2.363 0 12.571-16.85 13.727-22.659.522-2.627.096-3.111-5.666-6.425l-6.23-3.584.224-7.666c.211-7.236.091-7.716-2.141-8.565-3.069-1.167-15.093-2.45-15.847-1.691M75.22 132.597l-4.16 2.481 2.012 5.104c2.409 6.112 5.903 12.084 9.79 16.733l2.856 3.415 6.748-3.774 6.748-3.774 2.674 1.977c1.47 1.087 4.51 2.913 6.754 4.058l4.081 2.082 2.499-2.699c3.178-3.433 7.78-10.352 7.771-11.682-.004-.56-2.367-1.124-5.25-1.253-2.884-.129-7.493-.748-10.243-1.375-5.976-1.363-18.639-7.011-22.928-10.228-4.881-3.66-4.981-3.672-9.352-1.065m71.298 6.707c-5.447 9.416-15.753 18.429-27.812 24.324l-5.795 2.832.295 4.997.294 4.996 4.5.836c4.752.882 22.198.325 23.962-.766.571-.352 1.038-3.98 1.038-8.062v-7.42l4.25-2.151c2.338-1.183 5.463-3.006 6.945-4.05 2.606-1.835 2.651-2.025 1.349-5.716-1.704-4.828-5.257-11.829-6.346-12.502-.457-.282-1.663.925-2.68 2.682M34 218.818c0 9.595.476 15.421 1.556 19.06 1.809 6.089 6.975 12.286 12.876 15.444L52.5 255.5h151l4.068-2.178c5.901-3.158 11.067-9.355 12.876-15.444 1.08-3.639 1.556-9.465 1.556-19.06V205H34v13.818m72.856-4.302c-2.891 1.571-5.125 6.538-4.165 9.262.334.947 1.518 2.734 2.632 3.972 1.976 2.195 2.528 2.25 22.677 2.25s20.701-.055 22.677-2.25c2.88-3.199 3.391-5.258 2.172-8.752-1.861-5.339-4.652-6.003-25.049-5.958-13.952.031-18.928.381-20.944 1.476"/><path fill="#1976D2" fill-opacity=".275" fill-rule="evenodd" d="M138.722 82.75c-6.596 9.086-6.612 8.922.939 9.73 11.372 1.218 24.381 6.267 33.221 12.893l3.382 2.535 3.86-2.204c2.123-1.212 3.864-2.654 3.868-3.204.027-3.955-11.892-23.503-14.327-23.497-.641.001-3.786 1.583-6.99 3.514l-5.825 3.513-2.675-1.885C151.508 82.267 143.489 78 142.625 78c-.25 0-2.006 2.138-3.903 4.75m-57.167.882C77.792 88.561 73.468 96.87 72.517 101c-.512 2.229.102 2.881 5.657 6.008l6.231 3.508.047 7.658c.027 4.212.367 7.977.756 8.367.836.837 12.548 2.145 14.962 1.671 1.462-.287 1.302-1.115-1.271-6.614-4.104-8.77-6.123-19.296-5.727-29.863l.328-8.766-3-1.978c-1.65-1.088-3.542-1.981-4.204-1.984-.662-.004-2.796 2.077-4.741 4.625M120.4 111.4c-2.858 2.858-3.4 4.116-3.4 7.894 0 3.58.591 5.127 2.901 7.6 2.483 2.658 3.601 3.103 7.75 3.084 7.314-.034 11.349-4.126 11.349-11.512 0-5.457-5.265-10.466-11-10.466-3.443 0-4.813.613-7.6 3.4m26.228 28.986c-4.139 7.699-20.726 21.47-29.878 24.807-2.481.905-2.75 1.474-2.75 5.825 0 4.624.133 4.852 3.237 5.534 1.781.391 6.624.711 10.763.711s8.982-.32 10.763-.711l3.237-.711V161.034l4.76-2.412c2.617-1.327 5.8-3.255 7.072-4.285l2.313-1.873-2.129-5.691c-1.171-3.13-2.891-6.631-3.823-7.779-1.687-2.081-1.7-2.075-3.565 1.392"/><path fill="#1976D2" fill-opacity=".544" fill-rule="evenodd" d="M123.388 108.98c-3.597 1.454-6.388 5.933-6.388 10.255 0 3.176.677 4.642 3.4 7.365 4.395 4.395 9.886 4.713 14.489.84 9.51-8.002.079-23.139-11.501-18.46"/></svg>